<svg version="1.1" id="Layer_1" xmlns="http://www.w3.org/2000/svg" xmlns:xlink="http://www.w3.org/1999/xlink" x="0px" y="0px"
	 width="100%" viewBox="0 0 500 500" enable-background="new 0 0 500 500" xml:space="preserve">
<path fill="#0D213C" opacity="1.000000" stroke="none" 
	d="
M1.000000,180.000000 
	C1.000000,120.014854 1.000000,60.529713 1.000000,1.022284 
	C167.610199,1.022284 334.220398,1.022284 500.915283,1.022284 
	C500.915283,167.568542 500.915283,334.137146 500.915283,500.852875 
	C334.333435,500.852875 167.666733,500.852875 1.000000,500.852875 
	C1.000000,394.112823 1.000000,287.306396 1.000000,180.000000 
M145.305679,332.336029 
	C144.667252,331.575500 143.945068,330.870178 143.402374,330.046570 
	C113.018097,283.934784 96.260025,233.683792 97.791451,178.041412 
	C98.659630,146.496780 106.030220,116.644699 123.854546,90.174232 
	C144.923294,58.885517 174.258469,41.609863 212.287582,39.776211 
	C231.609131,38.844582 249.987122,43.027145 267.952637,49.643879 
	C269.417633,50.183441 270.901947,50.670574 272.377289,51.182076 
	C271.763763,49.775406 270.876404,49.010086 269.847565,48.597637 
	C256.295624,43.164799 243.054062,36.625168 229.085632,32.635464 
	C202.887131,25.152576 176.365616,25.243063 150.500748,34.784016 
	C115.931381,47.535858 92.201622,72.030731 77.115959,105.068481 
	C58.261864,146.359146 55.769936,189.746552 63.556278,233.742920 
	C75.406898,300.704315 106.172249,357.771606 156.927032,403.309540 
	C188.117935,431.294403 223.995468,450.105621 266.645966,453.552856 
	C302.906616,456.483612 334.376221,445.246368 360.788055,420.512329 
	C385.133728,397.713226 397.985199,368.602936 404.802795,336.480133 
	C404.997833,335.561188 404.827423,334.564728 404.827423,334.412323 
	C399.486938,345.400024 394.671906,357.308838 388.210480,368.244904 
	C363.697876,409.732849 316.978607,430.421906 269.808655,421.204102 
	C237.757889,414.940826 210.040588,399.892731 185.927704,378.276398 
	C176.307526,369.652191 167.870010,359.708740 159.738434,350.413391 
	C161.042084,350.608612 162.342514,350.948486 163.649841,350.977386 
	C183.963669,351.426605 204.278305,351.838318 224.592957,352.248993 
	C226.383911,352.285187 228.176239,352.253754 230.853088,352.253754 
	C230.853088,337.307037 230.853088,322.769867 230.853088,308.127167 
	C223.642670,307.801453 216.257858,307.467865 208.383896,307.112152 
	C209.844467,301.862915 211.262451,297.434570 212.269623,292.914673 
	C212.952621,289.849640 214.485641,289.080261 217.495407,289.214630 
	C227.646515,289.667816 237.809326,289.936127 247.970352,290.068329 
	C258.437286,290.204529 268.907349,290.098572 279.372040,290.098572 
	C281.070831,297.190277 282.469696,303.029968 283.940796,309.171082 
	C276.340149,309.171082 269.419556,309.171082 261.730560,309.171082 
	C261.730560,323.950012 261.730560,338.475250 261.730560,353.272430 
	C290.428711,354.180786 319.196472,355.091339 348.800568,356.028351 
	C348.800568,340.826080 348.800568,326.110168 348.800568,310.830292 
	C341.693207,310.830292 334.572937,310.830292 327.556244,310.830292 
	C327.039215,309.028442 326.619019,307.766937 326.315826,306.477936 
	C317.177551,267.627167 308.044128,228.775253 298.924347,189.920151 
	C290.603363,154.468353 282.299103,119.012619 274.714325,83.713882 
	C276.440765,84.712799 278.209137,85.646118 279.887573,86.720078 
	C348.268372,130.474640 394.492584,223.103271 380.972473,309.519836 
	C375.901886,341.929535 363.400085,370.859772 339.340973,393.954865 
	C335.002625,398.119415 330.181122,401.780731 325.582703,405.674377 
	C327.515747,405.613342 329.164642,405.014893 330.645111,404.133545 
	C354.279816,390.063446 370.478729,369.613800 381.144897,344.593628 
	C395.767212,310.293396 398.343506,274.564209 391.886902,238.244781 
	C381.072052,177.409622 352.073730,126.985939 302.652466,89.375465 
	C270.424988,64.849747 234.204193,51.769970 192.991791,57.082844 
	C184.743652,58.146152 176.682388,60.659092 168.534958,62.503624 
	C168.641251,63.016113 168.747543,63.528599 168.853836,64.041084 
	C170.122757,63.968216 171.428268,64.063622 172.655075,63.797009 
	C188.659103,60.318977 204.710510,60.167328 220.793976,63.106583 
	C237.941696,66.240326 254.256393,71.688919 268.267975,80.882805 
	C258.111115,80.570015 247.937088,80.510857 237.805542,79.824341 
	C233.524933,79.534286 232.179184,81.130623 231.052979,84.922501 
	C212.406616,147.703842 193.614655,210.441956 174.838791,273.184814 
	C171.566681,284.119141 168.219345,295.030945 164.878510,306.046265 
	C158.512512,306.046265 152.614227,306.046265 145.670380,306.046265 
	C145.670380,315.249908 145.670380,324.051514 145.305679,332.336029 
M174.819977,456.662354 
	C228.186951,483.718109 280.463531,480.621246 310.276764,466.183472 
	C309.955353,466.118134 309.612823,465.946686 309.316223,466.005859 
	C308.016022,466.265228 306.722748,466.566437 305.438385,466.896851 
	C283.831085,472.456421 262.034760,473.260681 240.074509,469.404877 
	C201.634567,462.655487 168.611069,444.695801 139.174515,419.786041 
	C102.740532,388.954987 76.373573,350.696655 58.443588,306.676788 
	C38.315414,257.260101 30.391087,206.149551 40.068508,153.164398 
	C47.942780,110.051682 66.580658,72.819023 101.520470,44.955368 
	C102.401871,44.252472 103.078346,43.292610 103.850388,42.452591 
	C101.725555,42.421242 100.310951,43.151974 98.993614,44.028831 
	C78.352028,57.768429 62.177074,75.666451 50.181889,97.277374 
	C26.574612,139.809036 21.107832,185.646698 26.468431,233.193619 
	C30.784378,271.474792 42.579010,307.529877 60.901043,341.392761 
	C87.536926,390.621429 124.169907,430.063660 174.819977,456.662354 
z"/>
<path fill="#64DAFE" opacity="1.000000" stroke="none" 
	d="
M273.987457,83.558624 
	C282.299103,119.012619 290.603363,154.468353 298.924347,189.920151 
	C308.044128,228.775253 317.177551,267.627167 326.315826,306.477936 
	C326.619019,307.766937 327.039215,309.028442 327.556244,310.830292 
	C334.572937,310.830292 341.693207,310.830292 348.800568,310.830292 
	C348.800568,326.110168 348.800568,340.826080 348.800568,356.028351 
	C319.196472,355.091339 290.428711,354.180786 261.730560,353.272430 
	C261.730560,338.475250 261.730560,323.950012 261.730560,309.171082 
	C269.419556,309.171082 276.340149,309.171082 283.940796,309.171082 
	C282.469696,303.029968 281.070831,297.190277 279.372040,290.098572 
	C268.907349,290.098572 258.437286,290.204529 247.970352,290.068329 
	C237.809326,289.936127 227.646515,289.667816 217.495407,289.214630 
	C214.485641,289.080261 212.952621,289.849640 212.269623,292.914673 
	C211.262451,297.434570 209.844467,301.862915 208.383896,307.112152 
	C216.257858,307.467865 223.642670,307.801453 230.853088,308.127167 
	C230.853088,322.769867 230.853088,337.307037 230.853088,352.253754 
	C228.176239,352.253754 226.383911,352.285187 224.592957,352.248993 
	C204.278305,351.838318 183.963669,351.426605 163.649841,350.977386 
	C162.342514,350.948486 161.042084,350.608612 159.063660,350.163391 
	C154.149384,344.226654 149.909882,338.539886 145.670380,332.853149 
	C145.670380,324.051514 145.670380,315.249908 145.670380,306.046265 
	C152.614227,306.046265 158.512512,306.046265 164.878510,306.046265 
	C168.219345,295.030945 171.566681,284.119141 174.838791,273.184814 
	C193.614655,210.441956 212.406616,147.703842 231.052979,84.922501 
	C232.179184,81.130623 233.524933,79.534286 237.805542,79.824341 
	C247.937088,80.510857 258.111115,80.570015 269.030090,80.964096 
	C271.190613,81.883133 272.589050,82.720879 273.987457,83.558624 
M247.652115,175.112549 
	C240.613235,198.382523 233.574341,221.652496 226.225266,245.947937 
	C241.161652,245.947937 255.020447,245.947937 269.425598,245.947937 
	C263.456573,219.267609 257.477692,192.543167 251.498779,165.818726 
	C251.147614,165.845200 250.796448,165.871674 250.445282,165.898148 
	C249.591110,168.715164 248.736954,171.532196 247.652115,175.112549 
z"/>
<path fill="#00B6FD" opacity="1.000000" stroke="none" 
	d="
M145.488037,332.594604 
	C149.909882,338.539886 154.149384,344.226654 158.641510,350.139618 
	C167.870010,359.708740 176.307526,369.652191 185.927704,378.276398 
	C210.040588,399.892731 237.757889,414.940826 269.808655,421.204102 
	C316.978607,430.421906 363.697876,409.732849 388.210480,368.244904 
	C394.671906,357.308838 399.486938,345.400024 404.827423,334.412323 
	C404.827423,334.564728 404.997833,335.561188 404.802795,336.480133 
	C397.985199,368.602936 385.133728,397.713226 360.788055,420.512329 
	C334.376221,445.246368 302.906616,456.483612 266.645966,453.552856 
	C223.995468,450.105621 188.117935,431.294403 156.927032,403.309540 
	C106.172249,357.771606 75.406898,300.704315 63.556278,233.742920 
	C55.769936,189.746552 58.261864,146.359146 77.115959,105.068481 
	C92.201622,72.030731 115.931381,47.535858 150.500748,34.784016 
	C176.365616,25.243063 202.887131,25.152576 229.085632,32.635464 
	C243.054062,36.625168 256.295624,43.164799 269.847565,48.597637 
	C270.876404,49.010086 271.763763,49.775406 272.377289,51.182076 
	C270.901947,50.670574 269.417633,50.183441 267.952637,49.643879 
	C249.987122,43.027145 231.609131,38.844582 212.287582,39.776211 
	C174.258469,41.609863 144.923294,58.885517 123.854546,90.174232 
	C106.030220,116.644699 98.659630,146.496780 97.791451,178.041412 
	C96.260025,233.683792 113.018097,283.934784 143.402374,330.046570 
	C143.945068,330.870178 144.667252,331.575500 145.488037,332.594604 
z"/>
<path fill="#62D7FA" opacity="1.000000" stroke="none" 
	d="
M174.506088,456.462952 
	C124.169907,430.063660 87.536926,390.621429 60.901043,341.392761 
	C42.579010,307.529877 30.784378,271.474792 26.468431,233.193619 
	C21.107832,185.646698 26.574612,139.809036 50.181889,97.277374 
	C62.177074,75.666451 78.352028,57.768429 98.993614,44.028831 
	C100.310951,43.151974 101.725555,42.421242 103.850388,42.452591 
	C103.078346,43.292610 102.401871,44.252472 101.520470,44.955368 
	C66.580658,72.819023 47.942780,110.051682 40.068508,153.164398 
	C30.391087,206.149551 38.315414,257.260101 58.443588,306.676788 
	C76.373573,350.696655 102.740532,388.954987 139.174515,419.786041 
	C168.611069,444.695801 201.634567,462.655487 240.074509,469.404877 
	C262.034760,473.260681 283.831085,472.456421 305.438385,466.896851 
	C306.722748,466.566437 308.016022,466.265228 309.316223,466.005859 
	C309.612823,465.946686 309.955353,466.118134 310.275909,466.187683 
	C280.463531,480.621246 228.186951,483.718109 174.506088,456.462952 
z"/>
<path fill="#00AADE" opacity="1.000000" stroke="none" 
	d="
M274.350891,83.636253 
	C272.589050,82.720879 271.190613,81.883133 269.501221,80.939636 
	C254.256393,71.688919 237.941696,66.240326 220.793976,63.106583 
	C204.710510,60.167328 188.659103,60.318977 172.655075,63.797009 
	C171.428268,64.063622 170.122757,63.968216 168.853836,64.041084 
	C168.747543,63.528599 168.641251,63.016113 168.534958,62.503624 
	C176.682388,60.659092 184.743652,58.146152 192.991791,57.082844 
	C234.204193,51.769970 270.424988,64.849747 302.652466,89.375465 
	C352.073730,126.985939 381.072052,177.409622 391.886902,238.244781 
	C398.343506,274.564209 395.767212,310.293396 381.144897,344.593628 
	C370.478729,369.613800 354.279816,390.063446 330.645111,404.133545 
	C329.164642,405.014893 327.515747,405.613342 325.582703,405.674377 
	C330.181122,401.780731 335.002625,398.119415 339.340973,393.954865 
	C363.400085,370.859772 375.901886,341.929535 380.972473,309.519836 
	C394.492584,223.103271 348.268372,130.474640 279.887573,86.720078 
	C278.209137,85.646118 276.440765,84.712799 274.350891,83.636253 
z"/>
<path fill="#0E233E" opacity="1.000000" stroke="none" 
	d="
M247.767456,174.730896 
	C248.736954,171.532196 249.591110,168.715164 250.445282,165.898148 
	C250.796448,165.871674 251.147614,165.845200 251.498779,165.818726 
	C257.477692,192.543167 263.456573,219.267609 269.425598,245.947937 
	C255.020447,245.947937 241.161652,245.947937 226.225266,245.947937 
	C233.574341,221.652496 240.613235,198.382523 247.767456,174.730896 
z"/>
</svg>